<?xml version="1.0" encoding="UTF-8"?>
<svg width="1280px" height="17px" viewBox="0 0 1280 17" version="1.1" xmlns="http://www.w3.org/2000/svg" xmlns:xlink="http://www.w3.org/1999/xlink">
    <!-- Generator: sketchtool 43.2 (39069) - http://www.bohemiancoding.com/sketch -->
    <title>053D1463-E008-405E-9C63-325C06307D67</title>
    <desc>Created with sketchtool.</desc>
    <defs></defs>
    <g id="New" stroke="none" stroke-width="1" fill="none" fill-rule="evenodd">
        <g id="Home---new" transform="translate(-80.000000, -657.000000)" fill="#FFFFFF">
            <g id="Group-2" transform="translate(80.000000, 657.000000)">
                <g id="grass">
                    <g id="Page-1">
                        <path d="M27.8455191,16.943475 L22.5992902,16.943475 C18.9581633,14.20588 23.0263088,7.0108 20.0829547,1.7731 C29.2753239,10.23145 27.8455191,16.943475 27.8455191,16.943475 Z" id="Fill-1"></path>
                        <path d="M26.0574091,16.943475 L31.6924933,16.943475 C35.3336202,14.20588 29.1456078,9.833225 32.0851943,4.5951 C29.3286548,7.523605 27.7425856,9.150675 26.8541917,10.9633" id="Fill-2"></path>
                        <path d="M24.4908607,16.943475 L15.8818722,16.943475 C15.8818722,16.943475 12.9727773,10.80435 18.6384117,7.2913 C19.8050754,8.4252 20.5714641,9.4959875 21.0709051,10.4273325" id="Fill-3"></path>
                        <path d="M43.7101154,16.943475 L36.8854303,16.943475 C33.2443035,14.20588 38.2732653,5.822075 35.3337178,0.580975 C44.526087,9.041025 43.7101154,16.943475 43.7101154,16.943475 Z" id="Fill-4"></path>
                        <path d="M16.0266193,9.88805 C15.1916442,7.04089 14.3223514,3.9117 15.7597303,1.3532 C6.56736114,9.81155 11.2265004,16.9439 11.2265004,16.9439 L15.8817356,16.9439" id="Fill-5"></path>
                        <path d="M12.1946761,16.943475 L6.55959184,16.943475 C2.91846495,14.20588 9.10647737,9.256925 6.16689086,4.017525 C8.05036025,6.0163425 9.38480568,7.98694 10.3264916,9.24715" id="Fill-6"></path>
                        <path d="M9.03425022,16.943475 L1.37836735,16.943475 C1.37836735,16.943475 -2.28559894,15.831165 2.67845608,6.140825 C2.84240195,8.896695 4.20352263,10.820925 5.56080745,12.85455" id="Fill-7"></path>
                        <path d="M61.9191659,16.943475 L56.672937,16.943475 C53.0318101,14.20588 58.1331943,7.0108 55.1936469,1.7731 C64.3898225,10.23145 61.9191659,16.943475 61.9191659,16.943475 Z" id="Fill-8"></path>
                        <path d="M60.1310559,16.943475 L66.1436735,16.943475 C70.9171074,14.04982 62.0908518,9.018075 65.0303993,3.77825 C62.2738598,6.706755 60.5047826,8.398425 61.3092369,10.28925" id="Fill-9"></path>
                        <path d="M58.5684117,16.943475 L49.9594232,16.943475 C49.9594232,16.943475 47.3401154,10.754625 53.0095563,7.244975 C57.1767702,9.8597025 55.8194854,10.425845 55.8194854,10.425845" id="Fill-10"></path>
                        <path d="M76.8418811,16.943475 L70.9627862,16.943475 C67.3216593,14.20588 73.2999201,5.299325 70.3565759,0.058225 C79.548945,8.519975 76.8418909,16.943475 76.8418909,16.943475 L76.8418811,16.943475 Z" id="Fill-11"></path>
                        <path d="M75.0537711,16.943475 L81.5390861,16.943475 C85.180213,14.20588 77.9627684,8.9216 80.906181,3.6805 C78.9426761,5.767335 77.6654268,8.10475 76.7694197,9.4095" id="Fill-12"></path>
                        <path d="M78.2190772,16.943475 L86.2523957,16.943475 C86.2523957,16.943475 90.9572138,14.77198 84.5747737,5.9483 C84.4108279,8.70417 83.5225022,10.820925 82.1613132,12.85455" id="Fill-13"></path>
                        <path d="M46.3864241,2.57975 C43.7861491,4.9720325 40.8695386,13.6663 41.7998048,16.933275 L43.1608962,16.9365943 L43.1570799,16.9448945 L46.3864144,16.9415753 L49.6157489,16.9448945 L49.6119423,16.9365943 L50.9730337,16.933275 C51.9071358,13.66443 48.9827853,4.97165 46.3864144,2.57975 L46.3864241,2.57975 Z" id="Fill-14"></path>
                        <path d="M27.8230701,16.943475 L37.4081012,16.943475 C37.4081012,16.943475 39.3411535,10.80435 33.6755191,7.2913 C32.5088554,8.4252 31.7424667,9.4959875 31.2430257,10.4273325" id="Fill-15"></path>
                        <path d="M61.9845608,16.943475 L71.5695918,16.943475 C71.5695918,16.943475 73.1098846,9.95435 67.4442502,6.4413 C66.2775865,7.5752 65.0879858,8.7456075 65.0155634,10.4273325" id="Fill-16"></path>
                    </g>
                    <g id="Page-1-Copy-9" transform="translate(631.000000, 0.000000)">
                        <path d="M27.8455191,16.943475 L22.5992902,16.943475 C18.9581633,14.20588 23.0263088,7.0108 20.0829547,1.7731 C29.2753239,10.23145 27.8455191,16.943475 27.8455191,16.943475 Z" id="Fill-1"></path>
                        <path d="M26.0574091,16.943475 L31.6924933,16.943475 C35.3336202,14.20588 29.1456078,9.833225 32.0851943,4.5951 C29.3286548,7.523605 27.7425856,9.150675 26.8541917,10.9633" id="Fill-2"></path>
                        <path d="M24.4908607,16.943475 L15.8818722,16.943475 C15.8818722,16.943475 12.9727773,10.80435 18.6384117,7.2913 C19.8050754,8.4252 20.5714641,9.4959875 21.0709051,10.4273325" id="Fill-3"></path>
                        <path d="M43.7101154,16.943475 L36.8854303,16.943475 C33.2443035,14.20588 38.2732653,5.822075 35.3337178,0.580975 C44.526087,9.041025 43.7101154,16.943475 43.7101154,16.943475 Z" id="Fill-4"></path>
                        <path d="M16.0266193,9.88805 C15.1916442,7.04089 14.3223514,3.9117 15.7597303,1.3532 C6.56736114,9.81155 11.2265004,16.9439 11.2265004,16.9439 L15.8817356,16.9439" id="Fill-5"></path>
                        <path d="M12.1946761,16.943475 L6.55959184,16.943475 C2.91846495,14.20588 9.10647737,9.256925 6.16689086,4.017525 C8.05036025,6.0163425 9.38480568,7.98694 10.3264916,9.24715" id="Fill-6"></path>
                        <path d="M9.03425022,16.943475 L1.37836735,16.943475 C1.37836735,16.943475 -2.28559894,15.831165 2.67845608,6.140825 C2.84240195,8.896695 4.20352263,10.820925 5.56080745,12.85455" id="Fill-7"></path>
                        <path d="M61.9191659,16.943475 L56.672937,16.943475 C53.0318101,14.20588 58.1331943,7.0108 55.1936469,1.7731 C64.3898225,10.23145 61.9191659,16.943475 61.9191659,16.943475 Z" id="Fill-8"></path>
                        <path d="M60.1310559,16.943475 L66.1436735,16.943475 C70.9171074,14.04982 62.0908518,9.018075 65.0303993,3.77825 C62.2738598,6.706755 60.5047826,8.398425 61.3092369,10.28925" id="Fill-9"></path>
                        <path d="M58.5684117,16.943475 L49.9594232,16.943475 C49.9594232,16.943475 47.3401154,10.754625 53.0095563,7.244975 C57.1767702,9.8597025 55.8194854,10.425845 55.8194854,10.425845" id="Fill-10"></path>
                        <path d="M76.8418811,16.943475 L70.9627862,16.943475 C67.3216593,14.20588 73.2999201,5.299325 70.3565759,0.058225 C79.548945,8.519975 76.8418909,16.943475 76.8418909,16.943475 L76.8418811,16.943475 Z" id="Fill-11"></path>
                        <path d="M75.0537711,16.943475 L81.5390861,16.943475 C85.180213,14.20588 77.9627684,8.9216 80.906181,3.6805 C78.9426761,5.767335 77.6654268,8.10475 76.7694197,9.4095" id="Fill-12"></path>
                        <path d="M78.2190772,16.943475 L86.2523957,16.943475 C86.2523957,16.943475 90.9572138,14.77198 84.5747737,5.9483 C84.4108279,8.70417 83.5225022,10.820925 82.1613132,12.85455" id="Fill-13"></path>
                        <path d="M46.3864241,2.57975 C43.7861491,4.9720325 40.8695386,13.6663 41.7998048,16.933275 L43.1608962,16.9365943 L43.1570799,16.9448945 L46.3864144,16.9415753 L49.6157489,16.9448945 L49.6119423,16.9365943 L50.9730337,16.933275 C51.9071358,13.66443 48.9827853,4.97165 46.3864144,2.57975 L46.3864241,2.57975 Z" id="Fill-14"></path>
                        <path d="M27.8230701,16.943475 L37.4081012,16.943475 C37.4081012,16.943475 39.3411535,10.80435 33.6755191,7.2913 C32.5088554,8.4252 31.7424667,9.4959875 31.2430257,10.4273325" id="Fill-15"></path>
                        <path d="M61.9845608,16.943475 L71.5695918,16.943475 C71.5695918,16.943475 73.1098846,9.95435 67.4442502,6.4413 C66.2775865,7.5752 65.0879858,8.7456075 65.0155634,10.4273325" id="Fill-16"></path>
                    </g>
                    <g id="Page-1-Copy-2" transform="translate(82.000000, 0.000000)">
                        <path d="M27.8455191,16.943475 L22.5992902,16.943475 C18.9581633,14.20588 23.0263088,7.0108 20.0829547,1.7731 C29.2753239,10.23145 27.8455191,16.943475 27.8455191,16.943475 Z" id="Fill-1"></path>
                        <path d="M26.0574091,16.943475 L31.6924933,16.943475 C35.3336202,14.20588 29.1456078,9.833225 32.0851943,4.5951 C29.3286548,7.523605 27.7425856,9.150675 26.8541917,10.9633" id="Fill-2"></path>
                        <path d="M24.4908607,16.943475 L15.8818722,16.943475 C15.8818722,16.943475 12.9727773,10.80435 18.6384117,7.2913 C19.8050754,8.4252 20.5714641,9.4959875 21.0709051,10.4273325" id="Fill-3"></path>
                        <path d="M43.7101154,16.943475 L36.8854303,16.943475 C33.2443035,14.20588 38.2732653,5.822075 35.3337178,0.580975 C44.526087,9.041025 43.7101154,16.943475 43.7101154,16.943475 Z" id="Fill-4"></path>
                        <path d="M16.0266193,9.88805 C15.1916442,7.04089 14.3223514,3.9117 15.7597303,1.3532 C6.56736114,9.81155 11.2265004,16.9439 11.2265004,16.9439 L15.8817356,16.9439" id="Fill-5"></path>
                        <path d="M12.1946761,16.943475 L6.55959184,16.943475 C2.91846495,14.20588 9.10647737,9.256925 6.16689086,4.017525 C8.05036025,6.0163425 9.38480568,7.98694 10.3264916,9.24715" id="Fill-6"></path>
                        <path d="M9.03425022,16.943475 L1.37836735,16.943475 C1.37836735,16.943475 -2.28559894,15.831165 2.67845608,6.140825 C2.84240195,8.896695 4.20352263,10.820925 5.56080745,12.85455" id="Fill-7"></path>
                        <path d="M61.9191659,16.943475 L56.672937,16.943475 C53.0318101,14.20588 58.1331943,7.0108 55.1936469,1.7731 C64.3898225,10.23145 61.9191659,16.943475 61.9191659,16.943475 Z" id="Fill-8"></path>
                        <path d="M60.1310559,16.943475 L66.1436735,16.943475 C70.9171074,14.04982 62.0908518,9.018075 65.0303993,3.77825 C62.2738598,6.706755 60.5047826,8.398425 61.3092369,10.28925" id="Fill-9"></path>
                        <path d="M58.5684117,16.943475 L49.9594232,16.943475 C49.9594232,16.943475 47.3401154,10.754625 53.0095563,7.244975 C57.1767702,9.8597025 55.8194854,10.425845 55.8194854,10.425845" id="Fill-10"></path>
                        <path d="M76.8418811,16.943475 L70.9627862,16.943475 C67.3216593,14.20588 73.2999201,5.299325 70.3565759,0.058225 C79.548945,8.519975 76.8418909,16.943475 76.8418909,16.943475 L76.8418811,16.943475 Z" id="Fill-11"></path>
                        <path d="M75.0537711,16.943475 L81.5390861,16.943475 C85.180213,14.20588 77.9627684,8.9216 80.906181,3.6805 C78.9426761,5.767335 77.6654268,8.10475 76.7694197,9.4095" id="Fill-12"></path>
                        <path d="M78.2190772,16.943475 L86.2523957,16.943475 C86.2523957,16.943475 90.9572138,14.77198 84.5747737,5.9483 C84.4108279,8.70417 83.5225022,10.820925 82.1613132,12.85455" id="Fill-13"></path>
                        <path d="M46.3864241,2.57975 C43.7861491,4.9720325 40.8695386,13.6663 41.7998048,16.933275 L43.1608962,16.9365943 L43.1570799,16.9448945 L46.3864144,16.9415753 L49.6157489,16.9448945 L49.6119423,16.9365943 L50.9730337,16.933275 C51.9071358,13.66443 48.9827853,4.97165 46.3864144,2.57975 L46.3864241,2.57975 Z" id="Fill-14"></path>
                        <path d="M27.8230701,16.943475 L37.4081012,16.943475 C37.4081012,16.943475 39.3411535,10.80435 33.6755191,7.2913 C32.5088554,8.4252 31.7424667,9.4959875 31.2430257,10.4273325" id="Fill-15"></path>
                        <path d="M61.9845608,16.943475 L71.5695918,16.943475 C71.5695918,16.943475 73.1098846,9.95435 67.4442502,6.4413 C66.2775865,7.5752 65.0879858,8.7456075 65.0155634,10.4273325" id="Fill-16"></path>
                    </g>
                    <g id="Page-1-Copy-10" transform="translate(714.000000, 0.000000)">
                        <path d="M27.8455191,16.943475 L22.5992902,16.943475 C18.9581633,14.20588 23.0263088,7.0108 20.0829547,1.7731 C29.2753239,10.23145 27.8455191,16.943475 27.8455191,16.943475 Z" id="Fill-1"></path>
                        <path d="M26.0574091,16.943475 L31.6924933,16.943475 C35.3336202,14.20588 29.1456078,9.833225 32.0851943,4.5951 C29.3286548,7.523605 27.7425856,9.150675 26.8541917,10.9633" id="Fill-2"></path>
                        <path d="M24.4908607,16.943475 L15.8818722,16.943475 C15.8818722,16.943475 12.9727773,10.80435 18.6384117,7.2913 C19.8050754,8.4252 20.5714641,9.4959875 21.0709051,10.4273325" id="Fill-3"></path>
                        <path d="M43.7101154,16.943475 L36.8854303,16.943475 C33.2443035,14.20588 38.2732653,5.822075 35.3337178,0.580975 C44.526087,9.041025 43.7101154,16.943475 43.7101154,16.943475 Z" id="Fill-4"></path>
                        <path d="M16.0266193,9.88805 C15.1916442,7.04089 14.3223514,3.9117 15.7597303,1.3532 C6.56736114,9.81155 11.2265004,16.9439 11.2265004,16.9439 L15.8817356,16.9439" id="Fill-5"></path>
                        <path d="M12.1946761,16.943475 L6.55959184,16.943475 C2.91846495,14.20588 9.10647737,9.256925 6.16689086,4.017525 C8.05036025,6.0163425 9.38480568,7.98694 10.3264916,9.24715" id="Fill-6"></path>
                        <path d="M9.03425022,16.943475 L1.37836735,16.943475 C1.37836735,16.943475 -2.28559894,15.831165 2.67845608,6.140825 C2.84240195,8.896695 4.20352263,10.820925 5.56080745,12.85455" id="Fill-7"></path>
                        <path d="M61.9191659,16.943475 L56.672937,16.943475 C53.0318101,14.20588 58.1331943,7.0108 55.1936469,1.7731 C64.3898225,10.23145 61.9191659,16.943475 61.9191659,16.943475 Z" id="Fill-8"></path>
                        <path d="M60.1310559,16.943475 L66.1436735,16.943475 C70.9171074,14.04982 62.0908518,9.018075 65.0303993,3.77825 C62.2738598,6.706755 60.5047826,8.398425 61.3092369,10.28925" id="Fill-9"></path>
                        <path d="M58.5684117,16.943475 L49.9594232,16.943475 C49.9594232,16.943475 47.3401154,10.754625 53.0095563,7.244975 C57.1767702,9.8597025 55.8194854,10.425845 55.8194854,10.425845" id="Fill-10"></path>
                        <path d="M76.8418811,16.943475 L70.9627862,16.943475 C67.3216593,14.20588 73.2999201,5.299325 70.3565759,0.058225 C79.548945,8.519975 76.8418909,16.943475 76.8418909,16.943475 L76.8418811,16.943475 Z" id="Fill-11"></path>
                        <path d="M75.0537711,16.943475 L81.5390861,16.943475 C85.180213,14.20588 77.9627684,8.9216 80.906181,3.6805 C78.9426761,5.767335 77.6654268,8.10475 76.7694197,9.4095" id="Fill-12"></path>
                        <path d="M78.2190772,16.943475 L86.2523957,16.943475 C86.2523957,16.943475 90.9572138,14.77198 84.5747737,5.9483 C84.4108279,8.70417 83.5225022,10.820925 82.1613132,12.85455" id="Fill-13"></path>
                        <path d="M46.3864241,2.57975 C43.7861491,4.9720325 40.8695386,13.6663 41.7998048,16.933275 L43.1608962,16.9365943 L43.1570799,16.9448945 L46.3864144,16.9415753 L49.6157489,16.9448945 L49.6119423,16.9365943 L50.9730337,16.933275 C51.9071358,13.66443 48.9827853,4.97165 46.3864144,2.57975 L46.3864241,2.57975 Z" id="Fill-14"></path>
                        <path d="M27.8230701,16.943475 L37.4081012,16.943475 C37.4081012,16.943475 39.3411535,10.80435 33.6755191,7.2913 C32.5088554,8.4252 31.7424667,9.4959875 31.2430257,10.4273325" id="Fill-15"></path>
                        <path d="M61.9845608,16.943475 L71.5695918,16.943475 C71.5695918,16.943475 73.1098846,9.95435 67.4442502,6.4413 C66.2775865,7.5752 65.0879858,8.7456075 65.0155634,10.4273325" id="Fill-16"></path>
                    </g>
                    <g id="Page-1-Copy-4" transform="translate(165.000000, 0.000000)">
                        <path d="M27.8455191,16.943475 L22.5992902,16.943475 C18.9581633,14.20588 23.0263088,7.0108 20.0829547,1.7731 C29.2753239,10.23145 27.8455191,16.943475 27.8455191,16.943475 Z" id="Fill-1"></path>
                        <path d="M26.0574091,16.943475 L31.6924933,16.943475 C35.3336202,14.20588 29.1456078,9.833225 32.0851943,4.5951 C29.3286548,7.523605 27.7425856,9.150675 26.8541917,10.9633" id="Fill-2"></path>
                        <path d="M24.4908607,16.943475 L15.8818722,16.943475 C15.8818722,16.943475 12.9727773,10.80435 18.6384117,7.2913 C19.8050754,8.4252 20.5714641,9.4959875 21.0709051,10.4273325" id="Fill-3"></path>
                        <path d="M43.7101154,16.943475 L36.8854303,16.943475 C33.2443035,14.20588 38.2732653,5.822075 35.3337178,0.580975 C44.526087,9.041025 43.7101154,16.943475 43.7101154,16.943475 Z" id="Fill-4"></path>
                        <path d="M16.0266193,9.88805 C15.1916442,7.04089 14.3223514,3.9117 15.7597303,1.3532 C6.56736114,9.81155 11.2265004,16.9439 11.2265004,16.9439 L15.8817356,16.9439" id="Fill-5"></path>
                        <path d="M12.1946761,16.943475 L6.55959184,16.943475 C2.91846495,14.20588 9.10647737,9.256925 6.16689086,4.017525 C8.05036025,6.0163425 9.38480568,7.98694 10.3264916,9.24715" id="Fill-6"></path>
                        <path d="M9.03425022,16.943475 L1.37836735,16.943475 C1.37836735,16.943475 -2.28559894,15.831165 2.67845608,6.140825 C2.84240195,8.896695 4.20352263,10.820925 5.56080745,12.85455" id="Fill-7"></path>
                        <path d="M61.9191659,16.943475 L56.672937,16.943475 C53.0318101,14.20588 58.1331943,7.0108 55.1936469,1.7731 C64.3898225,10.23145 61.9191659,16.943475 61.9191659,16.943475 Z" id="Fill-8"></path>
                        <path d="M60.1310559,16.943475 L66.1436735,16.943475 C70.9171074,14.04982 62.0908518,9.018075 65.0303993,3.77825 C62.2738598,6.706755 60.5047826,8.398425 61.3092369,10.28925" id="Fill-9"></path>
                        <path d="M58.5684117,16.943475 L49.9594232,16.943475 C49.9594232,16.943475 47.3401154,10.754625 53.0095563,7.244975 C57.1767702,9.8597025 55.8194854,10.425845 55.8194854,10.425845" id="Fill-10"></path>
                        <path d="M76.8418811,16.943475 L70.9627862,16.943475 C67.3216593,14.20588 73.2999201,5.299325 70.3565759,0.058225 C79.548945,8.519975 76.8418909,16.943475 76.8418909,16.943475 L76.8418811,16.943475 Z" id="Fill-11"></path>
                        <path d="M75.0537711,16.943475 L81.5390861,16.943475 C85.180213,14.20588 77.9627684,8.9216 80.906181,3.6805 C78.9426761,5.767335 77.6654268,8.10475 76.7694197,9.4095" id="Fill-12"></path>
                        <path d="M78.2190772,16.943475 L86.2523957,16.943475 C86.2523957,16.943475 90.9572138,14.77198 84.5747737,5.9483 C84.4108279,8.70417 83.5225022,10.820925 82.1613132,12.85455" id="Fill-13"></path>
                        <path d="M46.3864241,2.57975 C43.7861491,4.9720325 40.8695386,13.6663 41.7998048,16.933275 L43.1608962,16.9365943 L43.1570799,16.9448945 L46.3864144,16.9415753 L49.6157489,16.9448945 L49.6119423,16.9365943 L50.9730337,16.933275 C51.9071358,13.66443 48.9827853,4.97165 46.3864144,2.57975 L46.3864241,2.57975 Z" id="Fill-14"></path>
                        <path d="M27.8230701,16.943475 L37.4081012,16.943475 C37.4081012,16.943475 39.3411535,10.80435 33.6755191,7.2913 C32.5088554,8.4252 31.7424667,9.4959875 31.2430257,10.4273325" id="Fill-15"></path>
                        <path d="M61.9845608,16.943475 L71.5695918,16.943475 C71.5695918,16.943475 73.1098846,9.95435 67.4442502,6.4413 C66.2775865,7.5752 65.0879858,8.7456075 65.0155634,10.4273325" id="Fill-16"></path>
                    </g>
                    <g id="Page-1-Copy-11" transform="translate(795.000000, 0.000000)">
                        <path d="M27.8455191,16.943475 L22.5992902,16.943475 C18.9581633,14.20588 23.0263088,7.0108 20.0829547,1.7731 C29.2753239,10.23145 27.8455191,16.943475 27.8455191,16.943475 Z" id="Fill-1"></path>
                        <path d="M26.0574091,16.943475 L31.6924933,16.943475 C35.3336202,14.20588 29.1456078,9.833225 32.0851943,4.5951 C29.3286548,7.523605 27.7425856,9.150675 26.8541917,10.9633" id="Fill-2"></path>
                        <path d="M24.4908607,16.943475 L15.8818722,16.943475 C15.8818722,16.943475 12.9727773,10.80435 18.6384117,7.2913 C19.8050754,8.4252 20.5714641,9.4959875 21.0709051,10.4273325" id="Fill-3"></path>
                        <path d="M43.7101154,16.943475 L36.8854303,16.943475 C33.2443035,14.20588 38.2732653,5.822075 35.3337178,0.580975 C44.526087,9.041025 43.7101154,16.943475 43.7101154,16.943475 Z" id="Fill-4"></path>
                        <path d="M16.0266193,9.88805 C15.1916442,7.04089 14.3223514,3.9117 15.7597303,1.3532 C6.56736114,9.81155 11.2265004,16.9439 11.2265004,16.9439 L15.8817356,16.9439" id="Fill-5"></path>
                        <path d="M12.1946761,16.943475 L6.55959184,16.943475 C2.91846495,14.20588 9.10647737,9.256925 6.16689086,4.017525 C8.05036025,6.0163425 9.38480568,7.98694 10.3264916,9.24715" id="Fill-6"></path>
                        <path d="M9.03425022,16.943475 L1.37836735,16.943475 C1.37836735,16.943475 -2.28559894,15.831165 2.67845608,6.140825 C2.84240195,8.896695 4.20352263,10.820925 5.56080745,12.85455" id="Fill-7"></path>
                        <path d="M61.9191659,16.943475 L56.672937,16.943475 C53.0318101,14.20588 58.1331943,7.0108 55.1936469,1.7731 C64.3898225,10.23145 61.9191659,16.943475 61.9191659,16.943475 Z" id="Fill-8"></path>
                        <path d="M60.1310559,16.943475 L66.1436735,16.943475 C70.9171074,14.04982 62.0908518,9.018075 65.0303993,3.77825 C62.2738598,6.706755 60.5047826,8.398425 61.3092369,10.28925" id="Fill-9"></path>
                        <path d="M58.5684117,16.943475 L49.9594232,16.943475 C49.9594232,16.943475 47.3401154,10.754625 53.0095563,7.244975 C57.1767702,9.8597025 55.8194854,10.425845 55.8194854,10.425845" id="Fill-10"></path>
                        <path d="M76.8418811,16.943475 L70.9627862,16.943475 C67.3216593,14.20588 73.2999201,5.299325 70.3565759,0.058225 C79.548945,8.519975 76.8418909,16.943475 76.8418909,16.943475 L76.8418811,16.943475 Z" id="Fill-11"></path>
                        <path d="M75.0537711,16.943475 L81.5390861,16.943475 C85.180213,14.20588 77.9627684,8.9216 80.906181,3.6805 C78.9426761,5.767335 77.6654268,8.10475 76.7694197,9.4095" id="Fill-12"></path>
                        <path d="M78.2190772,16.943475 L86.2523957,16.943475 C86.2523957,16.943475 90.9572138,14.77198 84.5747737,5.9483 C84.4108279,8.70417 83.5225022,10.820925 82.1613132,12.85455" id="Fill-13"></path>
                        <path d="M46.3864241,2.57975 C43.7861491,4.9720325 40.8695386,13.6663 41.7998048,16.933275 L43.1608962,16.9365943 L43.1570799,16.9448945 L46.3864144,16.9415753 L49.6157489,16.9448945 L49.6119423,16.9365943 L50.9730337,16.933275 C51.9071358,13.66443 48.9827853,4.97165 46.3864144,2.57975 L46.3864241,2.57975 Z" id="Fill-14"></path>
                        <path d="M27.8230701,16.943475 L37.4081012,16.943475 C37.4081012,16.943475 39.3411535,10.80435 33.6755191,7.2913 C32.5088554,8.4252 31.7424667,9.4959875 31.2430257,10.4273325" id="Fill-15"></path>
                        <path d="M61.9845608,16.943475 L71.5695918,16.943475 C71.5695918,16.943475 73.1098846,9.95435 67.4442502,6.4413 C66.2775865,7.5752 65.0879858,8.7456075 65.0155634,10.4273325" id="Fill-16"></path>
                    </g>
                    <g id="Page-1-Copy-3" transform="translate(247.000000, 0.000000)">
                        <path d="M27.8455191,16.943475 L22.5992902,16.943475 C18.9581633,14.20588 23.0263088,7.0108 20.0829547,1.7731 C29.2753239,10.23145 27.8455191,16.943475 27.8455191,16.943475 Z" id="Fill-1"></path>
                        <path d="M26.0574091,16.943475 L31.6924933,16.943475 C35.3336202,14.20588 29.1456078,9.833225 32.0851943,4.5951 C29.3286548,7.523605 27.7425856,9.150675 26.8541917,10.9633" id="Fill-2"></path>
                        <path d="M24.4908607,16.943475 L15.8818722,16.943475 C15.8818722,16.943475 12.9727773,10.80435 18.6384117,7.2913 C19.8050754,8.4252 20.5714641,9.4959875 21.0709051,10.4273325" id="Fill-3"></path>
                        <path d="M43.7101154,16.943475 L36.8854303,16.943475 C33.2443035,14.20588 38.2732653,5.822075 35.3337178,0.580975 C44.526087,9.041025 43.7101154,16.943475 43.7101154,16.943475 Z" id="Fill-4"></path>
                        <path d="M16.0266193,9.88805 C15.1916442,7.04089 14.3223514,3.9117 15.7597303,1.3532 C6.56736114,9.81155 11.2265004,16.9439 11.2265004,16.9439 L15.8817356,16.9439" id="Fill-5"></path>
                        <path d="M12.1946761,16.943475 L6.55959184,16.943475 C2.91846495,14.20588 9.10647737,9.256925 6.16689086,4.017525 C8.05036025,6.0163425 9.38480568,7.98694 10.3264916,9.24715" id="Fill-6"></path>
                        <path d="M9.03425022,16.943475 L1.37836735,16.943475 C1.37836735,16.943475 -2.28559894,15.831165 2.67845608,6.140825 C2.84240195,8.896695 4.20352263,10.820925 5.56080745,12.85455" id="Fill-7"></path>
                        <path d="M61.9191659,16.943475 L56.672937,16.943475 C53.0318101,14.20588 58.1331943,7.0108 55.1936469,1.7731 C64.3898225,10.23145 61.9191659,16.943475 61.9191659,16.943475 Z" id="Fill-8"></path>
                        <path d="M60.1310559,16.943475 L66.1436735,16.943475 C70.9171074,14.04982 62.0908518,9.018075 65.0303993,3.77825 C62.2738598,6.706755 60.5047826,8.398425 61.3092369,10.28925" id="Fill-9"></path>
                        <path d="M58.5684117,16.943475 L49.9594232,16.943475 C49.9594232,16.943475 47.3401154,10.754625 53.0095563,7.244975 C57.1767702,9.8597025 55.8194854,10.425845 55.8194854,10.425845" id="Fill-10"></path>
                        <path d="M76.8418811,16.943475 L70.9627862,16.943475 C67.3216593,14.20588 73.2999201,5.299325 70.3565759,0.058225 C79.548945,8.519975 76.8418909,16.943475 76.8418909,16.943475 L76.8418811,16.943475 Z" id="Fill-11"></path>
                        <path d="M75.0537711,16.943475 L81.5390861,16.943475 C85.180213,14.20588 77.9627684,8.9216 80.906181,3.6805 C78.9426761,5.767335 77.6654268,8.10475 76.7694197,9.4095" id="Fill-12"></path>
                        <path d="M78.2190772,16.943475 L86.2523957,16.943475 C86.2523957,16.943475 90.9572138,14.77198 84.5747737,5.9483 C84.4108279,8.70417 83.5225022,10.820925 82.1613132,12.85455" id="Fill-13"></path>
                        <path d="M46.3864241,2.57975 C43.7861491,4.9720325 40.8695386,13.6663 41.7998048,16.933275 L43.1608962,16.9365943 L43.1570799,16.9448945 L46.3864144,16.9415753 L49.6157489,16.9448945 L49.6119423,16.9365943 L50.9730337,16.933275 C51.9071358,13.66443 48.9827853,4.97165 46.3864144,2.57975 L46.3864241,2.57975 Z" id="Fill-14"></path>
                        <path d="M27.8230701,16.943475 L37.4081012,16.943475 C37.4081012,16.943475 39.3411535,10.80435 33.6755191,7.2913 C32.5088554,8.4252 31.7424667,9.4959875 31.2430257,10.4273325" id="Fill-15"></path>
                        <path d="M61.9845608,16.943475 L71.5695918,16.943475 C71.5695918,16.943475 73.1098846,9.95435 67.4442502,6.4413 C66.2775865,7.5752 65.0879858,8.7456075 65.0155634,10.4273325" id="Fill-16"></path>
                    </g>
                    <g id="Page-1-Copy-12" transform="translate(879.000000, 0.000000)">
                        <path d="M27.8455191,16.943475 L22.5992902,16.943475 C18.9581633,14.20588 23.0263088,7.0108 20.0829547,1.7731 C29.2753239,10.23145 27.8455191,16.943475 27.8455191,16.943475 Z" id="Fill-1"></path>
                        <path d="M26.0574091,16.943475 L31.6924933,16.943475 C35.3336202,14.20588 29.1456078,9.833225 32.0851943,4.5951 C29.3286548,7.523605 27.7425856,9.150675 26.8541917,10.9633" id="Fill-2"></path>
                        <path d="M24.4908607,16.943475 L15.8818722,16.943475 C15.8818722,16.943475 12.9727773,10.80435 18.6384117,7.2913 C19.8050754,8.4252 20.5714641,9.4959875 21.0709051,10.4273325" id="Fill-3"></path>
                        <path d="M43.7101154,16.943475 L36.8854303,16.943475 C33.2443035,14.20588 38.2732653,5.822075 35.3337178,0.580975 C44.526087,9.041025 43.7101154,16.943475 43.7101154,16.943475 Z" id="Fill-4"></path>
                        <path d="M16.0266193,9.88805 C15.1916442,7.04089 14.3223514,3.9117 15.7597303,1.3532 C6.56736114,9.81155 11.2265004,16.9439 11.2265004,16.9439 L15.8817356,16.9439" id="Fill-5"></path>
                        <path d="M12.1946761,16.943475 L6.55959184,16.943475 C2.91846495,14.20588 9.10647737,9.256925 6.16689086,4.017525 C8.05036025,6.0163425 9.38480568,7.98694 10.3264916,9.24715" id="Fill-6"></path>
                        <path d="M9.03425022,16.943475 L1.37836735,16.943475 C1.37836735,16.943475 -2.28559894,15.831165 2.67845608,6.140825 C2.84240195,8.896695 4.20352263,10.820925 5.56080745,12.85455" id="Fill-7"></path>
                        <path d="M61.9191659,16.943475 L56.672937,16.943475 C53.0318101,14.20588 58.1331943,7.0108 55.1936469,1.7731 C64.3898225,10.23145 61.9191659,16.943475 61.9191659,16.943475 Z" id="Fill-8"></path>
                        <path d="M60.1310559,16.943475 L66.1436735,16.943475 C70.9171074,14.04982 62.0908518,9.018075 65.0303993,3.77825 C62.2738598,6.706755 60.5047826,8.398425 61.3092369,10.28925" id="Fill-9"></path>
                        <path d="M58.5684117,16.943475 L49.9594232,16.943475 C49.9594232,16.943475 47.3401154,10.754625 53.0095563,7.244975 C57.1767702,9.8597025 55.8194854,10.425845 55.8194854,10.425845" id="Fill-10"></path>
                        <path d="M76.8418811,16.943475 L70.9627862,16.943475 C67.3216593,14.20588 73.2999201,5.299325 70.3565759,0.058225 C79.548945,8.519975 76.8418909,16.943475 76.8418909,16.943475 L76.8418811,16.943475 Z" id="Fill-11"></path>
                        <path d="M75.0537711,16.943475 L81.5390861,16.943475 C85.180213,14.20588 77.9627684,8.9216 80.906181,3.6805 C78.9426761,5.767335 77.6654268,8.10475 76.7694197,9.4095" id="Fill-12"></path>
                        <path d="M78.2190772,16.943475 L86.2523957,16.943475 C86.2523957,16.943475 90.9572138,14.77198 84.5747737,5.9483 C84.4108279,8.70417 83.5225022,10.820925 82.1613132,12.85455" id="Fill-13"></path>
                        <path d="M46.3864241,2.57975 C43.7861491,4.9720325 40.8695386,13.6663 41.7998048,16.933275 L43.1608962,16.9365943 L43.1570799,16.9448945 L46.3864144,16.9415753 L49.6157489,16.9448945 L49.6119423,16.9365943 L50.9730337,16.933275 C51.9071358,13.66443 48.9827853,4.97165 46.3864144,2.57975 L46.3864241,2.57975 Z" id="Fill-14"></path>
                        <path d="M27.8230701,16.943475 L37.4081012,16.943475 C37.4081012,16.943475 39.3411535,10.80435 33.6755191,7.2913 C32.5088554,8.4252 31.7424667,9.4959875 31.2430257,10.4273325" id="Fill-15"></path>
                        <path d="M61.9845608,16.943475 L71.5695918,16.943475 C71.5695918,16.943475 73.1098846,9.95435 67.4442502,6.4413 C66.2775865,7.5752 65.0879858,8.7456075 65.0155634,10.4273325" id="Fill-16"></path>
                    </g>
                    <g id="Page-1-Copy-8" transform="translate(315.000000, 0.000000)">
                        <path d="M27.8455191,16.943475 L22.5992902,16.943475 C18.9581633,14.20588 23.0263088,7.0108 20.0829547,1.7731 C29.2753239,10.23145 27.8455191,16.943475 27.8455191,16.943475 Z" id="Fill-1"></path>
                        <path d="M26.0574091,16.943475 L31.6924933,16.943475 C35.3336202,14.20588 29.1456078,9.833225 32.0851943,4.5951 C29.3286548,7.523605 27.7425856,9.150675 26.8541917,10.9633" id="Fill-2"></path>
                        <path d="M24.4908607,16.943475 L15.8818722,16.943475 C15.8818722,16.943475 12.9727773,10.80435 18.6384117,7.2913 C19.8050754,8.4252 20.5714641,9.4959875 21.0709051,10.4273325" id="Fill-3"></path>
                        <path d="M43.7101154,16.943475 L36.8854303,16.943475 C33.2443035,14.20588 38.2732653,5.822075 35.3337178,0.580975 C44.526087,9.041025 43.7101154,16.943475 43.7101154,16.943475 Z" id="Fill-4"></path>
                        <path d="M16.0266193,9.88805 C15.1916442,7.04089 14.3223514,3.9117 15.7597303,1.3532 C6.56736114,9.81155 11.2265004,16.9439 11.2265004,16.9439 L15.8817356,16.9439" id="Fill-5"></path>
                        <path d="M12.1946761,16.943475 L6.55959184,16.943475 C2.91846495,14.20588 9.10647737,9.256925 6.16689086,4.017525 C8.05036025,6.0163425 9.38480568,7.98694 10.3264916,9.24715" id="Fill-6"></path>
                        <path d="M9.03425022,16.943475 L1.37836735,16.943475 C1.37836735,16.943475 -2.28559894,15.831165 2.67845608,6.140825 C2.84240195,8.896695 4.20352263,10.820925 5.56080745,12.85455" id="Fill-7"></path>
                        <path d="M61.9191659,16.943475 L56.672937,16.943475 C53.0318101,14.20588 58.1331943,7.0108 55.1936469,1.7731 C64.3898225,10.23145 61.9191659,16.943475 61.9191659,16.943475 Z" id="Fill-8"></path>
                        <path d="M60.1310559,16.943475 L66.1436735,16.943475 C70.9171074,14.04982 62.0908518,9.018075 65.0303993,3.77825 C62.2738598,6.706755 60.5047826,8.398425 61.3092369,10.28925" id="Fill-9"></path>
                        <path d="M58.5684117,16.943475 L49.9594232,16.943475 C49.9594232,16.943475 47.3401154,10.754625 53.0095563,7.244975 C57.1767702,9.8597025 55.8194854,10.425845 55.8194854,10.425845" id="Fill-10"></path>
                        <path d="M76.8418811,16.943475 L70.9627862,16.943475 C67.3216593,14.20588 73.2999201,5.299325 70.3565759,0.058225 C79.548945,8.519975 76.8418909,16.943475 76.8418909,16.943475 L76.8418811,16.943475 Z" id="Fill-11"></path>
                        <path d="M75.0537711,16.943475 L81.5390861,16.943475 C85.180213,14.20588 77.9627684,8.9216 80.906181,3.6805 C78.9426761,5.767335 77.6654268,8.10475 76.7694197,9.4095" id="Fill-12"></path>
                        <path d="M78.2190772,16.943475 L86.2523957,16.943475 C86.2523957,16.943475 90.9572138,14.77198 84.5747737,5.9483 C84.4108279,8.70417 83.5225022,10.820925 82.1613132,12.85455" id="Fill-13"></path>
                        <path d="M46.3864241,2.57975 C43.7861491,4.9720325 40.8695386,13.6663 41.7998048,16.933275 L43.1608962,16.9365943 L43.1570799,16.9448945 L46.3864144,16.9415753 L49.6157489,16.9448945 L49.6119423,16.9365943 L50.9730337,16.933275 C51.9071358,13.66443 48.9827853,4.97165 46.3864144,2.57975 L46.3864241,2.57975 Z" id="Fill-14"></path>
                        <path d="M27.8230701,16.943475 L37.4081012,16.943475 C37.4081012,16.943475 39.3411535,10.80435 33.6755191,7.2913 C32.5088554,8.4252 31.7424667,9.4959875 31.2430257,10.4273325" id="Fill-15"></path>
                        <path d="M61.9845608,16.943475 L71.5695918,16.943475 C71.5695918,16.943475 73.1098846,9.95435 67.4442502,6.4413 C66.2775865,7.5752 65.0879858,8.7456075 65.0155634,10.4273325" id="Fill-16"></path>
                    </g>
                    <g id="Page-1-Copy-13" transform="translate(945.000000, 0.000000)">
                        <path d="M27.8455191,16.943475 L22.5992902,16.943475 C18.9581633,14.20588 23.0263088,7.0108 20.0829547,1.7731 C29.2753239,10.23145 27.8455191,16.943475 27.8455191,16.943475 Z" id="Fill-1"></path>
                        <path d="M26.0574091,16.943475 L31.6924933,16.943475 C35.3336202,14.20588 29.1456078,9.833225 32.0851943,4.5951 C29.3286548,7.523605 27.7425856,9.150675 26.8541917,10.9633" id="Fill-2"></path>
                        <path d="M24.4908607,16.943475 L15.8818722,16.943475 C15.8818722,16.943475 12.9727773,10.80435 18.6384117,7.2913 C19.8050754,8.4252 20.5714641,9.4959875 21.0709051,10.4273325" id="Fill-3"></path>
                        <path d="M43.7101154,16.943475 L36.8854303,16.943475 C33.2443035,14.20588 38.2732653,5.822075 35.3337178,0.580975 C44.526087,9.041025 43.7101154,16.943475 43.7101154,16.943475 Z" id="Fill-4"></path>
                        <path d="M16.0266193,9.88805 C15.1916442,7.04089 14.3223514,3.9117 15.7597303,1.3532 C6.56736114,9.81155 11.2265004,16.9439 11.2265004,16.9439 L15.8817356,16.9439" id="Fill-5"></path>
                        <path d="M12.1946761,16.943475 L6.55959184,16.943475 C2.91846495,14.20588 9.10647737,9.256925 6.16689086,4.017525 C8.05036025,6.0163425 9.38480568,7.98694 10.3264916,9.24715" id="Fill-6"></path>
                        <path d="M9.03425022,16.943475 L1.37836735,16.943475 C1.37836735,16.943475 -2.28559894,15.831165 2.67845608,6.140825 C2.84240195,8.896695 4.20352263,10.820925 5.56080745,12.85455" id="Fill-7"></path>
                        <path d="M61.9191659,16.943475 L56.672937,16.943475 C53.0318101,14.20588 58.1331943,7.0108 55.1936469,1.7731 C64.3898225,10.23145 61.9191659,16.943475 61.9191659,16.943475 Z" id="Fill-8"></path>
                        <path d="M60.1310559,16.943475 L66.1436735,16.943475 C70.9171074,14.04982 62.0908518,9.018075 65.0303993,3.77825 C62.2738598,6.706755 60.5047826,8.398425 61.3092369,10.28925" id="Fill-9"></path>
                        <path d="M58.5684117,16.943475 L49.9594232,16.943475 C49.9594232,16.943475 47.3401154,10.754625 53.0095563,7.244975 C57.1767702,9.8597025 55.8194854,10.425845 55.8194854,10.425845" id="Fill-10"></path>
                        <path d="M76.8418811,16.943475 L70.9627862,16.943475 C67.3216593,14.20588 73.2999201,5.299325 70.3565759,0.058225 C79.548945,8.519975 76.8418909,16.943475 76.8418909,16.943475 L76.8418811,16.943475 Z" id="Fill-11"></path>
                        <path d="M75.0537711,16.943475 L81.5390861,16.943475 C85.180213,14.20588 77.9627684,8.9216 80.906181,3.6805 C78.9426761,5.767335 77.6654268,8.10475 76.7694197,9.4095" id="Fill-12"></path>
                        <path d="M78.2190772,16.943475 L86.2523957,16.943475 C86.2523957,16.943475 90.9572138,14.77198 84.5747737,5.9483 C84.4108279,8.70417 83.5225022,10.820925 82.1613132,12.85455" id="Fill-13"></path>
                        <path d="M46.3864241,2.57975 C43.7861491,4.9720325 40.8695386,13.6663 41.7998048,16.933275 L43.1608962,16.9365943 L43.1570799,16.9448945 L46.3864144,16.9415753 L49.6157489,16.9448945 L49.6119423,16.9365943 L50.9730337,16.933275 C51.9071358,13.66443 48.9827853,4.97165 46.3864144,2.57975 L46.3864241,2.57975 Z" id="Fill-14"></path>
                        <path d="M27.8230701,16.943475 L37.4081012,16.943475 C37.4081012,16.943475 39.3411535,10.80435 33.6755191,7.2913 C32.5088554,8.4252 31.7424667,9.4959875 31.2430257,10.4273325" id="Fill-15"></path>
                        <path d="M61.9845608,16.943475 L71.5695918,16.943475 C71.5695918,16.943475 73.1098846,9.95435 67.4442502,6.4413 C66.2775865,7.5752 65.0879858,8.7456075 65.0155634,10.4273325" id="Fill-16"></path>
                    </g>
                    <g id="Page-1-Copy-7" transform="translate(397.000000, 0.000000)">
                        <path d="M27.8455191,16.943475 L22.5992902,16.943475 C18.9581633,14.20588 23.0263088,7.0108 20.0829547,1.7731 C29.2753239,10.23145 27.8455191,16.943475 27.8455191,16.943475 Z" id="Fill-1"></path>
                        <path d="M26.0574091,16.943475 L31.6924933,16.943475 C35.3336202,14.20588 29.1456078,9.833225 32.0851943,4.5951 C29.3286548,7.523605 27.7425856,9.150675 26.8541917,10.9633" id="Fill-2"></path>
                        <path d="M24.4908607,16.943475 L15.8818722,16.943475 C15.8818722,16.943475 12.9727773,10.80435 18.6384117,7.2913 C19.8050754,8.4252 20.5714641,9.4959875 21.0709051,10.4273325" id="Fill-3"></path>
                        <path d="M43.7101154,16.943475 L36.8854303,16.943475 C33.2443035,14.20588 38.2732653,5.822075 35.3337178,0.580975 C44.526087,9.041025 43.7101154,16.943475 43.7101154,16.943475 Z" id="Fill-4"></path>
                        <path d="M16.0266193,9.88805 C15.1916442,7.04089 14.3223514,3.9117 15.7597303,1.3532 C6.56736114,9.81155 11.2265004,16.9439 11.2265004,16.9439 L15.8817356,16.9439" id="Fill-5"></path>
                        <path d="M12.1946761,16.943475 L6.55959184,16.943475 C2.91846495,14.20588 9.10647737,9.256925 6.16689086,4.017525 C8.05036025,6.0163425 9.38480568,7.98694 10.3264916,9.24715" id="Fill-6"></path>
                        <path d="M9.03425022,16.943475 L1.37836735,16.943475 C1.37836735,16.943475 -2.28559894,15.831165 2.67845608,6.140825 C2.84240195,8.896695 4.20352263,10.820925 5.56080745,12.85455" id="Fill-7"></path>
                        <path d="M61.9191659,16.943475 L56.672937,16.943475 C53.0318101,14.20588 58.1331943,7.0108 55.1936469,1.7731 C64.3898225,10.23145 61.9191659,16.943475 61.9191659,16.943475 Z" id="Fill-8"></path>
                        <path d="M60.1310559,16.943475 L66.1436735,16.943475 C70.9171074,14.04982 62.0908518,9.018075 65.0303993,3.77825 C62.2738598,6.706755 60.5047826,8.398425 61.3092369,10.28925" id="Fill-9"></path>
                        <path d="M58.5684117,16.943475 L49.9594232,16.943475 C49.9594232,16.943475 47.3401154,10.754625 53.0095563,7.244975 C57.1767702,9.8597025 55.8194854,10.425845 55.8194854,10.425845" id="Fill-10"></path>
                        <path d="M76.8418811,16.943475 L70.9627862,16.943475 C67.3216593,14.20588 73.2999201,5.299325 70.3565759,0.058225 C79.548945,8.519975 76.8418909,16.943475 76.8418909,16.943475 L76.8418811,16.943475 Z" id="Fill-11"></path>
                        <path d="M75.0537711,16.943475 L81.5390861,16.943475 C85.180213,14.20588 77.9627684,8.9216 80.906181,3.6805 C78.9426761,5.767335 77.6654268,8.10475 76.7694197,9.4095" id="Fill-12"></path>
                        <path d="M78.2190772,16.943475 L86.2523957,16.943475 C86.2523957,16.943475 90.9572138,14.77198 84.5747737,5.9483 C84.4108279,8.70417 83.5225022,10.820925 82.1613132,12.85455" id="Fill-13"></path>
                        <path d="M46.3864241,2.57975 C43.7861491,4.9720325 40.8695386,13.6663 41.7998048,16.933275 L43.1608962,16.9365943 L43.1570799,16.9448945 L46.3864144,16.9415753 L49.6157489,16.9448945 L49.6119423,16.9365943 L50.9730337,16.933275 C51.9071358,13.66443 48.9827853,4.97165 46.3864144,2.57975 L46.3864241,2.57975 Z" id="Fill-14"></path>
                        <path d="M27.8230701,16.943475 L37.4081012,16.943475 C37.4081012,16.943475 39.3411535,10.80435 33.6755191,7.2913 C32.5088554,8.4252 31.7424667,9.4959875 31.2430257,10.4273325" id="Fill-15"></path>
                        <path d="M61.9845608,16.943475 L71.5695918,16.943475 C71.5695918,16.943475 73.1098846,9.95435 67.4442502,6.4413 C66.2775865,7.5752 65.0879858,8.7456075 65.0155634,10.4273325" id="Fill-16"></path>
                    </g>
                    <g id="Page-1-Copy-14" transform="translate(1028.000000, 0.000000)">
                        <path d="M27.8455191,16.943475 L22.5992902,16.943475 C18.9581633,14.20588 23.0263088,7.0108 20.0829547,1.7731 C29.2753239,10.23145 27.8455191,16.943475 27.8455191,16.943475 Z" id="Fill-1"></path>
                        <path d="M26.0574091,16.943475 L31.6924933,16.943475 C35.3336202,14.20588 29.1456078,9.833225 32.0851943,4.5951 C29.3286548,7.523605 27.7425856,9.150675 26.8541917,10.9633" id="Fill-2"></path>
                        <path d="M24.4908607,16.943475 L15.8818722,16.943475 C15.8818722,16.943475 12.9727773,10.80435 18.6384117,7.2913 C19.8050754,8.4252 20.5714641,9.4959875 21.0709051,10.4273325" id="Fill-3"></path>
                        <path d="M43.7101154,16.943475 L36.8854303,16.943475 C33.2443035,14.20588 38.2732653,5.822075 35.3337178,0.580975 C44.526087,9.041025 43.7101154,16.943475 43.7101154,16.943475 Z" id="Fill-4"></path>
                        <path d="M16.0266193,9.88805 C15.1916442,7.04089 14.3223514,3.9117 15.7597303,1.3532 C6.56736114,9.81155 11.2265004,16.9439 11.2265004,16.9439 L15.8817356,16.9439" id="Fill-5"></path>
                        <path d="M12.1946761,16.943475 L6.55959184,16.943475 C2.91846495,14.20588 9.10647737,9.256925 6.16689086,4.017525 C8.05036025,6.0163425 9.38480568,7.98694 10.3264916,9.24715" id="Fill-6"></path>
                        <path d="M9.03425022,16.943475 L1.37836735,16.943475 C1.37836735,16.943475 -2.28559894,15.831165 2.67845608,6.140825 C2.84240195,8.896695 4.20352263,10.820925 5.56080745,12.85455" id="Fill-7"></path>
                        <path d="M61.9191659,16.943475 L56.672937,16.943475 C53.0318101,14.20588 58.1331943,7.0108 55.1936469,1.7731 C64.3898225,10.23145 61.9191659,16.943475 61.9191659,16.943475 Z" id="Fill-8"></path>
                        <path d="M60.1310559,16.943475 L66.1436735,16.943475 C70.9171074,14.04982 62.0908518,9.018075 65.0303993,3.77825 C62.2738598,6.706755 60.5047826,8.398425 61.3092369,10.28925" id="Fill-9"></path>
                        <path d="M58.5684117,16.943475 L49.9594232,16.943475 C49.9594232,16.943475 47.3401154,10.754625 53.0095563,7.244975 C57.1767702,9.8597025 55.8194854,10.425845 55.8194854,10.425845" id="Fill-10"></path>
                        <path d="M76.8418811,16.943475 L70.9627862,16.943475 C67.3216593,14.20588 73.2999201,5.299325 70.3565759,0.058225 C79.548945,8.519975 76.8418909,16.943475 76.8418909,16.943475 L76.8418811,16.943475 Z" id="Fill-11"></path>
                        <path d="M75.0537711,16.943475 L81.5390861,16.943475 C85.180213,14.20588 77.9627684,8.9216 80.906181,3.6805 C78.9426761,5.767335 77.6654268,8.10475 76.7694197,9.4095" id="Fill-12"></path>
                        <path d="M78.2190772,16.943475 L86.2523957,16.943475 C86.2523957,16.943475 90.9572138,14.77198 84.5747737,5.9483 C84.4108279,8.70417 83.5225022,10.820925 82.1613132,12.85455" id="Fill-13"></path>
                        <path d="M46.3864241,2.57975 C43.7861491,4.9720325 40.8695386,13.6663 41.7998048,16.933275 L43.1608962,16.9365943 L43.1570799,16.9448945 L46.3864144,16.9415753 L49.6157489,16.9448945 L49.6119423,16.9365943 L50.9730337,16.933275 C51.9071358,13.66443 48.9827853,4.97165 46.3864144,2.57975 L46.3864241,2.57975 Z" id="Fill-14"></path>
                        <path d="M27.8230701,16.943475 L37.4081012,16.943475 C37.4081012,16.943475 39.3411535,10.80435 33.6755191,7.2913 C32.5088554,8.4252 31.7424667,9.4959875 31.2430257,10.4273325" id="Fill-15"></path>
                        <path d="M61.9845608,16.943475 L71.5695918,16.943475 C71.5695918,16.943475 73.1098846,9.95435 67.4442502,6.4413 C66.2775865,7.5752 65.0879858,8.7456075 65.0155634,10.4273325" id="Fill-16"></path>
                    </g>
                    <g id="Page-1-Copy-6" transform="translate(479.000000, 0.000000)">
                        <path d="M27.8455191,16.943475 L22.5992902,16.943475 C18.9581633,14.20588 23.0263088,7.0108 20.0829547,1.7731 C29.2753239,10.23145 27.8455191,16.943475 27.8455191,16.943475 Z" id="Fill-1"></path>
                        <path d="M26.0574091,16.943475 L31.6924933,16.943475 C35.3336202,14.20588 29.1456078,9.833225 32.0851943,4.5951 C29.3286548,7.523605 27.7425856,9.150675 26.8541917,10.9633" id="Fill-2"></path>
                        <path d="M24.4908607,16.943475 L15.8818722,16.943475 C15.8818722,16.943475 12.9727773,10.80435 18.6384117,7.2913 C19.8050754,8.4252 20.5714641,9.4959875 21.0709051,10.4273325" id="Fill-3"></path>
                        <path d="M43.7101154,16.943475 L36.8854303,16.943475 C33.2443035,14.20588 38.2732653,5.822075 35.3337178,0.580975 C44.526087,9.041025 43.7101154,16.943475 43.7101154,16.943475 Z" id="Fill-4"></path>
                        <path d="M16.0266193,9.88805 C15.1916442,7.04089 14.3223514,3.9117 15.7597303,1.3532 C6.56736114,9.81155 11.2265004,16.9439 11.2265004,16.9439 L15.8817356,16.9439" id="Fill-5"></path>
                        <path d="M12.1946761,16.943475 L6.55959184,16.943475 C2.91846495,14.20588 9.10647737,9.256925 6.16689086,4.017525 C8.05036025,6.0163425 9.38480568,7.98694 10.3264916,9.24715" id="Fill-6"></path>
                        <path d="M9.03425022,16.943475 L1.37836735,16.943475 C1.37836735,16.943475 -2.28559894,15.831165 2.67845608,6.140825 C2.84240195,8.896695 4.20352263,10.820925 5.56080745,12.85455" id="Fill-7"></path>
                        <path d="M61.9191659,16.943475 L56.672937,16.943475 C53.0318101,14.20588 58.1331943,7.0108 55.1936469,1.7731 C64.3898225,10.23145 61.9191659,16.943475 61.9191659,16.943475 Z" id="Fill-8"></path>
                        <path d="M60.1310559,16.943475 L66.1436735,16.943475 C70.9171074,14.04982 62.0908518,9.018075 65.0303993,3.77825 C62.2738598,6.706755 60.5047826,8.398425 61.3092369,10.28925" id="Fill-9"></path>
                        <path d="M58.5684117,16.943475 L49.9594232,16.943475 C49.9594232,16.943475 47.3401154,10.754625 53.0095563,7.244975 C57.1767702,9.8597025 55.8194854,10.425845 55.8194854,10.425845" id="Fill-10"></path>
                        <path d="M76.8418811,16.943475 L70.9627862,16.943475 C67.3216593,14.20588 73.2999201,5.299325 70.3565759,0.058225 C79.548945,8.519975 76.8418909,16.943475 76.8418909,16.943475 L76.8418811,16.943475 Z" id="Fill-11"></path>
                        <path d="M75.0537711,16.943475 L81.5390861,16.943475 C85.180213,14.20588 77.9627684,8.9216 80.906181,3.6805 C78.9426761,5.767335 77.6654268,8.10475 76.7694197,9.4095" id="Fill-12"></path>
                        <path d="M78.2190772,16.943475 L86.2523957,16.943475 C86.2523957,16.943475 90.9572138,14.77198 84.5747737,5.9483 C84.4108279,8.70417 83.5225022,10.820925 82.1613132,12.85455" id="Fill-13"></path>
                        <path d="M46.3864241,2.57975 C43.7861491,4.9720325 40.8695386,13.6663 41.7998048,16.933275 L43.1608962,16.9365943 L43.1570799,16.9448945 L46.3864144,16.9415753 L49.6157489,16.9448945 L49.6119423,16.9365943 L50.9730337,16.933275 C51.9071358,13.66443 48.9827853,4.97165 46.3864144,2.57975 L46.3864241,2.57975 Z" id="Fill-14"></path>
                        <path d="M27.8230701,16.943475 L37.4081012,16.943475 C37.4081012,16.943475 39.3411535,10.80435 33.6755191,7.2913 C32.5088554,8.4252 31.7424667,9.4959875 31.2430257,10.4273325" id="Fill-15"></path>
                        <path d="M61.9845608,16.943475 L71.5695918,16.943475 C71.5695918,16.943475 73.1098846,9.95435 67.4442502,6.4413 C66.2775865,7.5752 65.0879858,8.7456075 65.0155634,10.4273325" id="Fill-16"></path>
                    </g>
                    <g id="Page-1-Copy-15" transform="translate(1110.000000, 0.000000)">
                        <path d="M27.8455191,16.943475 L22.5992902,16.943475 C18.9581633,14.20588 23.0263088,7.0108 20.0829547,1.7731 C29.2753239,10.23145 27.8455191,16.943475 27.8455191,16.943475 Z" id="Fill-1"></path>
                        <path d="M26.0574091,16.943475 L31.6924933,16.943475 C35.3336202,14.20588 29.1456078,9.833225 32.0851943,4.5951 C29.3286548,7.523605 27.7425856,9.150675 26.8541917,10.9633" id="Fill-2"></path>
                        <path d="M24.4908607,16.943475 L15.8818722,16.943475 C15.8818722,16.943475 12.9727773,10.80435 18.6384117,7.2913 C19.8050754,8.4252 20.5714641,9.4959875 21.0709051,10.4273325" id="Fill-3"></path>
                        <path d="M43.7101154,16.943475 L36.8854303,16.943475 C33.2443035,14.20588 38.2732653,5.822075 35.3337178,0.580975 C44.526087,9.041025 43.7101154,16.943475 43.7101154,16.943475 Z" id="Fill-4"></path>
                        <path d="M16.0266193,9.88805 C15.1916442,7.04089 14.3223514,3.9117 15.7597303,1.3532 C6.56736114,9.81155 11.2265004,16.9439 11.2265004,16.9439 L15.8817356,16.9439" id="Fill-5"></path>
                        <path d="M12.1946761,16.943475 L6.55959184,16.943475 C2.91846495,14.20588 9.10647737,9.256925 6.16689086,4.017525 C8.05036025,6.0163425 9.38480568,7.98694 10.3264916,9.24715" id="Fill-6"></path>
                        <path d="M9.03425022,16.943475 L1.37836735,16.943475 C1.37836735,16.943475 -2.28559894,15.831165 2.67845608,6.140825 C2.84240195,8.896695 4.20352263,10.820925 5.56080745,12.85455" id="Fill-7"></path>
                        <path d="M61.9191659,16.943475 L56.672937,16.943475 C53.0318101,14.20588 58.1331943,7.0108 55.1936469,1.7731 C64.3898225,10.23145 61.9191659,16.943475 61.9191659,16.943475 Z" id="Fill-8"></path>
                        <path d="M60.1310559,16.943475 L66.1436735,16.943475 C70.9171074,14.04982 62.0908518,9.018075 65.0303993,3.77825 C62.2738598,6.706755 60.5047826,8.398425 61.3092369,10.28925" id="Fill-9"></path>
                        <path d="M58.5684117,16.943475 L49.9594232,16.943475 C49.9594232,16.943475 47.3401154,10.754625 53.0095563,7.244975 C57.1767702,9.8597025 55.8194854,10.425845 55.8194854,10.425845" id="Fill-10"></path>
                        <path d="M76.8418811,16.943475 L70.9627862,16.943475 C67.3216593,14.20588 73.2999201,5.299325 70.3565759,0.058225 C79.548945,8.519975 76.8418909,16.943475 76.8418909,16.943475 L76.8418811,16.943475 Z" id="Fill-11"></path>
                        <path d="M75.0537711,16.943475 L81.5390861,16.943475 C85.180213,14.20588 77.9627684,8.9216 80.906181,3.6805 C78.9426761,5.767335 77.6654268,8.10475 76.7694197,9.4095" id="Fill-12"></path>
                        <path d="M78.2190772,16.943475 L86.2523957,16.943475 C86.2523957,16.943475 90.9572138,14.77198 84.5747737,5.9483 C84.4108279,8.70417 83.5225022,10.820925 82.1613132,12.85455" id="Fill-13"></path>
                        <path d="M46.3864241,2.57975 C43.7861491,4.9720325 40.8695386,13.6663 41.7998048,16.933275 L43.1608962,16.9365943 L43.1570799,16.9448945 L46.3864144,16.9415753 L49.6157489,16.9448945 L49.6119423,16.9365943 L50.9730337,16.933275 C51.9071358,13.66443 48.9827853,4.97165 46.3864144,2.57975 L46.3864241,2.57975 Z" id="Fill-14"></path>
                        <path d="M27.8230701,16.943475 L37.4081012,16.943475 C37.4081012,16.943475 39.3411535,10.80435 33.6755191,7.2913 C32.5088554,8.4252 31.7424667,9.4959875 31.2430257,10.4273325" id="Fill-15"></path>
                        <path d="M61.9845608,16.943475 L71.5695918,16.943475 C71.5695918,16.943475 73.1098846,9.95435 67.4442502,6.4413 C66.2775865,7.5752 65.0879858,8.7456075 65.0155634,10.4273325" id="Fill-16"></path>
                    </g>
                    <g id="Page-1-Copy-5" transform="translate(562.000000, 0.000000)">
                        <path d="M27.8455191,16.943475 L22.5992902,16.943475 C18.9581633,14.20588 23.0263088,7.0108 20.0829547,1.7731 C29.2753239,10.23145 27.8455191,16.943475 27.8455191,16.943475 Z" id="Fill-1"></path>
                        <path d="M26.0574091,16.943475 L31.6924933,16.943475 C35.3336202,14.20588 29.1456078,9.833225 32.0851943,4.5951 C29.3286548,7.523605 27.7425856,9.150675 26.8541917,10.9633" id="Fill-2"></path>
                        <path d="M24.4908607,16.943475 L15.8818722,16.943475 C15.8818722,16.943475 12.9727773,10.80435 18.6384117,7.2913 C19.8050754,8.4252 20.5714641,9.4959875 21.0709051,10.4273325" id="Fill-3"></path>
                        <path d="M43.7101154,16.943475 L36.8854303,16.943475 C33.2443035,14.20588 38.2732653,5.822075 35.3337178,0.580975 C44.526087,9.041025 43.7101154,16.943475 43.7101154,16.943475 Z" id="Fill-4"></path>
                        <path d="M16.0266193,9.88805 C15.1916442,7.04089 14.3223514,3.9117 15.7597303,1.3532 C6.56736114,9.81155 11.2265004,16.9439 11.2265004,16.9439 L15.8817356,16.9439" id="Fill-5"></path>
                        <path d="M12.1946761,16.943475 L6.55959184,16.943475 C2.91846495,14.20588 9.10647737,9.256925 6.16689086,4.017525 C8.05036025,6.0163425 9.38480568,7.98694 10.3264916,9.24715" id="Fill-6"></path>
                        <path d="M9.03425022,16.943475 L1.37836735,16.943475 C1.37836735,16.943475 -2.28559894,15.831165 2.67845608,6.140825 C2.84240195,8.896695 4.20352263,10.820925 5.56080745,12.85455" id="Fill-7"></path>
                        <path d="M61.9191659,16.943475 L56.672937,16.943475 C53.0318101,14.20588 58.1331943,7.0108 55.1936469,1.7731 C64.3898225,10.23145 61.9191659,16.943475 61.9191659,16.943475 Z" id="Fill-8"></path>
                        <path d="M60.1310559,16.943475 L66.1436735,16.943475 C70.9171074,14.04982 62.0908518,9.018075 65.0303993,3.77825 C62.2738598,6.706755 60.5047826,8.398425 61.3092369,10.28925" id="Fill-9"></path>
                        <path d="M58.5684117,16.943475 L49.9594232,16.943475 C49.9594232,16.943475 47.3401154,10.754625 53.0095563,7.244975 C57.1767702,9.8597025 55.8194854,10.425845 55.8194854,10.425845" id="Fill-10"></path>
                        <path d="M76.8418811,16.943475 L70.9627862,16.943475 C67.3216593,14.20588 73.2999201,5.299325 70.3565759,0.058225 C79.548945,8.519975 76.8418909,16.943475 76.8418909,16.943475 L76.8418811,16.943475 Z" id="Fill-11"></path>
                        <path d="M75.0537711,16.943475 L81.5390861,16.943475 C85.180213,14.20588 77.9627684,8.9216 80.906181,3.6805 C78.9426761,5.767335 77.6654268,8.10475 76.7694197,9.4095" id="Fill-12"></path>
                        <path d="M78.2190772,16.943475 L86.2523957,16.943475 C86.2523957,16.943475 90.9572138,14.77198 84.5747737,5.9483 C84.4108279,8.70417 83.5225022,10.820925 82.1613132,12.85455" id="Fill-13"></path>
                        <path d="M46.3864241,2.57975 C43.7861491,4.9720325 40.8695386,13.6663 41.7998048,16.933275 L43.1608962,16.9365943 L43.1570799,16.9448945 L46.3864144,16.9415753 L49.6157489,16.9448945 L49.6119423,16.9365943 L50.9730337,16.933275 C51.9071358,13.66443 48.9827853,4.97165 46.3864144,2.57975 L46.3864241,2.57975 Z" id="Fill-14"></path>
                        <path d="M27.8230701,16.943475 L37.4081012,16.943475 C37.4081012,16.943475 39.3411535,10.80435 33.6755191,7.2913 C32.5088554,8.4252 31.7424667,9.4959875 31.2430257,10.4273325" id="Fill-15"></path>
                        <path d="M61.9845608,16.943475 L71.5695918,16.943475 C71.5695918,16.943475 73.1098846,9.95435 67.4442502,6.4413 C66.2775865,7.5752 65.0879858,8.7456075 65.0155634,10.4273325" id="Fill-16"></path>
                    </g>
                    <g id="Page-1-Copy-16" transform="translate(1192.000000, 0.000000)">
                        <path d="M27.8455191,16.943475 L22.5992902,16.943475 C18.9581633,14.20588 23.0263088,7.0108 20.0829547,1.7731 C29.2753239,10.23145 27.8455191,16.943475 27.8455191,16.943475 Z" id="Fill-1"></path>
                        <path d="M26.0574091,16.943475 L31.6924933,16.943475 C35.3336202,14.20588 29.1456078,9.833225 32.0851943,4.5951 C29.3286548,7.523605 27.7425856,9.150675 26.8541917,10.9633" id="Fill-2"></path>
                        <path d="M24.4908607,16.943475 L15.8818722,16.943475 C15.8818722,16.943475 12.9727773,10.80435 18.6384117,7.2913 C19.8050754,8.4252 20.5714641,9.4959875 21.0709051,10.4273325" id="Fill-3"></path>
                        <path d="M43.7101154,16.943475 L36.8854303,16.943475 C33.2443035,14.20588 38.2732653,5.822075 35.3337178,0.580975 C44.526087,9.041025 43.7101154,16.943475 43.7101154,16.943475 Z" id="Fill-4"></path>
                        <path d="M16.0266193,9.88805 C15.1916442,7.04089 14.3223514,3.9117 15.7597303,1.3532 C6.56736114,9.81155 11.2265004,16.9439 11.2265004,16.9439 L15.8817356,16.9439" id="Fill-5"></path>
                        <path d="M12.1946761,16.943475 L6.55959184,16.943475 C2.91846495,14.20588 9.10647737,9.256925 6.16689086,4.017525 C8.05036025,6.0163425 9.38480568,7.98694 10.3264916,9.24715" id="Fill-6"></path>
                        <path d="M9.03425022,16.943475 L1.37836735,16.943475 C1.37836735,16.943475 -2.28559894,15.831165 2.67845608,6.140825 C2.84240195,8.896695 4.20352263,10.820925 5.56080745,12.85455" id="Fill-7"></path>
                        <path d="M61.9191659,16.943475 L56.672937,16.943475 C53.0318101,14.20588 58.1331943,7.0108 55.1936469,1.7731 C64.3898225,10.23145 61.9191659,16.943475 61.9191659,16.943475 Z" id="Fill-8"></path>
                        <path d="M60.1310559,16.943475 L66.1436735,16.943475 C70.9171074,14.04982 62.0908518,9.018075 65.0303993,3.77825 C62.2738598,6.706755 60.5047826,8.398425 61.3092369,10.28925" id="Fill-9"></path>
                        <path d="M58.5684117,16.943475 L49.9594232,16.943475 C49.9594232,16.943475 47.3401154,10.754625 53.0095563,7.244975 C57.1767702,9.8597025 55.8194854,10.425845 55.8194854,10.425845" id="Fill-10"></path>
                        <path d="M76.8418811,16.943475 L70.9627862,16.943475 C67.3216593,14.20588 73.2999201,5.299325 70.3565759,0.058225 C79.548945,8.519975 76.8418909,16.943475 76.8418909,16.943475 L76.8418811,16.943475 Z" id="Fill-11"></path>
                        <path d="M75.0537711,16.943475 L81.5390861,16.943475 C85.180213,14.20588 77.9627684,8.9216 80.906181,3.6805 C78.9426761,5.767335 77.6654268,8.10475 76.7694197,9.4095" id="Fill-12"></path>
                        <path d="M78.2190772,16.943475 L86.2523957,16.943475 C86.2523957,16.943475 90.9572138,14.77198 84.5747737,5.9483 C84.4108279,8.70417 83.5225022,10.820925 82.1613132,12.85455" id="Fill-13"></path>
                        <path d="M46.3864241,2.57975 C43.7861491,4.9720325 40.8695386,13.6663 41.7998048,16.933275 L43.1608962,16.9365943 L43.1570799,16.9448945 L46.3864144,16.9415753 L49.6157489,16.9448945 L49.6119423,16.9365943 L50.9730337,16.933275 C51.9071358,13.66443 48.9827853,4.97165 46.3864144,2.57975 L46.3864241,2.57975 Z" id="Fill-14"></path>
                        <path d="M27.8230701,16.943475 L37.4081012,16.943475 C37.4081012,16.943475 39.3411535,10.80435 33.6755191,7.2913 C32.5088554,8.4252 31.7424667,9.4959875 31.2430257,10.4273325" id="Fill-15"></path>
                        <path d="M61.9845608,16.943475 L71.5695918,16.943475 C71.5695918,16.943475 73.1098846,9.95435 67.4442502,6.4413 C66.2775865,7.5752 65.0879858,8.7456075 65.0155634,10.4273325" id="Fill-16"></path>
                    </g>
                </g>
            </g>
        </g>
    </g>
</svg>